<svg viewBox="0 0 39 48" fill="none" xmlns="http://www.w3.org/2000/svg">
<path d="M10.7685 0.0405003C10.6454 0.0629954 10.5186 0.0854905 10.4105 0.160474C9.97425 0.456659 9.87731 1.07152 10.1719 1.51018L12.2301 4.5995C9.04954 6.29413 6.67809 9.10977 5.90625 12.4878H32.2756C31.5037 9.10977 29.1323 6.29413 25.9517 4.5995L28.0099 1.51018C28.3045 1.07152 28.2076 0.456659 27.7713 0.160474C27.3313 -0.135711 26.7235 -0.00823903 26.429 0.430415L24.1619 3.78968C22.5884 3.21231 20.8807 2.88988 19.0909 2.88988C17.3011 2.88988 15.5934 3.21231 14.0199 3.78968L11.7528 0.430415C11.5328 0.100487 11.1339 -0.0307341 10.7685 0.0405003ZM13.8409 7.68883C14.6314 7.68883 15.2727 8.33368 15.2727 9.12851C15.2727 9.92708 14.6314 10.5682 13.8409 10.5682C13.0467 10.5682 12.4091 9.92708 12.4091 9.12851C12.4091 8.33368 13.0467 7.68883 13.8409 7.68883ZM24.3409 7.68883C25.1351 7.68883 25.7727 8.33368 25.7727 9.12851C25.7727 9.92708 25.1351 10.5682 24.3409 10.5682C23.5504 10.5682 22.9091 9.92708 22.9091 9.12851C22.9091 8.33368 23.5504 7.68883 24.3409 7.68883ZM2.86364 14.4074C1.28267 14.4074 0 15.6971 0 17.2867V30.7238C0 32.3134 1.28267 33.6032 2.86364 33.6032C3.19922 33.6032 3.51989 33.5319 3.81818 33.4232V14.5873C3.51989 14.4786 3.19922 14.4074 2.86364 14.4074ZM5.72727 14.4074V35.5227C5.72727 37.1086 7.01367 38.4021 8.59091 38.4021H29.5909C31.1681 38.4021 32.4545 37.1086 32.4545 35.5227V14.4074H5.72727ZM35.3182 14.4074C34.9826 14.4074 34.6619 14.4786 34.3636 14.5873V33.4232C34.6619 33.5282 34.9826 33.6032 35.3182 33.6032C36.8992 33.6032 38.1818 32.3134 38.1818 30.7238V17.2867C38.1818 15.6971 36.8992 14.4074 35.3182 14.4074ZM9.54545 40.3217V44.1608C9.54545 46.2791 11.2569 48 13.3636 48C15.4703 48 17.1818 46.2791 17.1818 44.1608V40.3217H9.54545ZM21 40.3217V44.1608C21 46.2791 22.7115 48 24.8182 48C26.9249 48 28.6364 46.2791 28.6364 44.1608V40.3217H21Z" fill="#A3C439"/>
</svg>
