<svg width="50" height="50" viewBox="0 0 50 50" fill="none" xmlns="http://www.w3.org/2000/svg">
<mask id="mask0_78_3234" style="mask-type:alpha" maskUnits="userSpaceOnUse" x="0" y="0" width="50" height="50">
<rect width="50" height="50" fill="#D9D9D9"/>
</mask>
<g mask="url(#mask0_78_3234)">
<path d="M35.4167 33.3333C33.6806 33.3333 32.2049 32.7257 30.9896 31.5104C29.7743 30.2951 29.1667 28.8194 29.1667 27.0833C29.1667 25.3472 29.7743 23.8715 30.9896 22.6563C32.2049 21.441 33.6806 20.8333 35.4167 20.8333C37.1528 20.8333 38.6285 21.441 39.8438 22.6563C41.059 23.8715 41.6667 25.3472 41.6667 27.0833C41.6667 28.8194 41.059 30.2951 39.8438 31.5104C38.6285 32.7257 37.1528 33.3333 35.4167 33.3333ZM35.4167 29.1667C36.0069 29.1667 36.5017 28.967 36.901 28.5677C37.3004 28.1684 37.5 27.6736 37.5 27.0833C37.5 26.4931 37.3004 25.9983 36.901 25.599C36.5017 25.1997 36.0069 25 35.4167 25C34.8264 25 34.3316 25.1997 33.9323 25.599C33.533 25.9983 33.3333 26.4931 33.3333 27.0833C33.3333 27.6736 33.533 28.1684 33.9323 28.5677C34.3316 28.967 34.8264 29.1667 35.4167 29.1667ZM22.9167 47.9167V41.875C22.9167 41.1458 23.0903 40.4601 23.4375 39.8177C23.7847 39.1754 24.2708 38.6632 24.8958 38.2813C26.0069 37.6215 27.1788 37.0747 28.4115 36.6406C29.6441 36.2066 30.9028 35.8854 32.1875 35.6771L35.4167 39.5833L38.6458 35.6771C39.9306 35.8854 41.1806 36.2066 42.3958 36.6406C43.6111 37.0747 44.7743 37.6215 45.8854 38.2813C46.5104 38.6632 47.0052 39.1754 47.3698 39.8177C47.7344 40.4601 47.9167 41.1458 47.9167 41.875V47.9167H22.9167ZM27.0313 43.75H33.4375L30.625 40.3125C30 40.4861 29.3924 40.7118 28.8021 40.9896C28.2118 41.2674 27.6215 41.5625 27.0313 41.875V43.75ZM37.3958 43.75H43.75V41.875C43.1944 41.5278 42.6215 41.224 42.0313 40.9635C41.441 40.7031 40.8333 40.4861 40.2083 40.3125L37.3958 43.75ZM10.4167 43.75C9.27083 43.75 8.28993 43.342 7.47396 42.526C6.65799 41.7101 6.25 40.7292 6.25 39.5833V10.4167C6.25 9.27083 6.65799 8.28993 7.47396 7.47396C8.28993 6.65799 9.27083 6.25 10.4167 6.25H39.5833C40.7292 6.25 41.7101 6.65799 42.526 7.47396C43.342 8.28993 43.75 9.27083 43.75 10.4167V20.8333C43.1944 20.1389 42.5868 19.4792 41.9271 18.8542C41.2674 18.2292 40.4861 17.8125 39.5833 17.6042V10.4167H10.4167V39.5833H19.0625C18.9583 39.9653 18.8802 40.3472 18.8281 40.7292C18.776 41.1111 18.75 41.4931 18.75 41.875V43.75H10.4167ZM14.5833 18.75H29.1667C30.0694 18.0556 31.059 17.5347 32.1354 17.1875C33.2118 16.8403 34.3056 16.6667 35.4167 16.6667V14.5833H14.5833V18.75ZM14.5833 27.0833H25C25 26.3542 25.0781 25.6424 25.2344 24.9479C25.3906 24.2535 25.6076 23.5764 25.8854 22.9167H14.5833V27.0833ZM14.5833 35.4167H21.7708C22.1528 35.1042 22.5608 34.8264 22.9948 34.5833C23.4288 34.3403 23.8715 34.1146 24.3229 33.9063V31.25H14.5833V35.4167ZM10.4167 39.5833V10.4167V17.5521V16.6667V39.5833Z" fill="#1E999B"/>
</g>
</svg>
