<svg width="40" height="40" viewBox="0 0 40 40" fill="none" xmlns="http://www.w3.org/2000/svg">
<g opacity="0.9">
<path d="M8.78049 15.9902C13.6083 15.9902 17.522 19.904 17.522 24.7317C17.522 29.5594 13.6083 33.4732 8.78049 33.4732C3.9527 33.4732 0.0390244 29.5594 0.0390244 24.7317L0 23.4829C0 13.8274 7.82736 6 17.4829 6V10.9951C14.1474 10.9951 11.0114 12.2941 8.65272 14.6527C8.19871 15.1068 7.78435 15.5899 7.41058 16.0974C7.85694 16.0272 8.31438 15.9902 8.78049 15.9902ZM31.2585 15.9902C36.0862 15.9902 40 19.904 40 24.7317C40 29.5594 36.0862 33.4732 31.2585 33.4732C26.4308 33.4732 22.5171 29.5594 22.5171 24.7317L22.478 23.4829C22.478 13.8274 30.3053 6 39.961 6V10.9951C36.6255 10.9951 33.4893 12.2941 31.1308 14.6527C30.6767 15.1068 30.2623 15.5899 29.8885 16.0974C30.3349 16.0272 30.7924 15.9902 31.2585 15.9902Z" fill="#FF8A5B"/>
</g>
</svg>
