<svg width="50" height="50" viewBox="0 0 50 50" fill="none" xmlns="http://www.w3.org/2000/svg">
<mask id="mask0_78_3229" style="mask-type:alpha" maskUnits="userSpaceOnUse" x="0" y="0" width="50" height="50">
<rect width="50" height="49.0196" fill="#D9D9D9"/>
</mask>
<g mask="url(#mask0_78_3229)">
<path d="M10.4165 42.8921V38.8072H20.8332V34.7222C17.9512 34.7222 15.4946 33.7265 13.4634 31.7351C11.4321 29.7437 10.4165 27.3352 10.4165 24.5098C10.4165 22.4333 10.9981 20.544 12.1613 18.8419C13.3245 17.1398 14.8957 15.8973 16.8748 15.1144C17.1526 13.957 17.7689 13.0208 18.7238 12.306C19.6787 11.5911 20.7637 11.2337 21.979 11.2337L20.8332 8.0678L22.8123 7.35293L22.0832 5.5147L26.0415 4.08496L26.6665 6.02532L28.6457 5.31045L34.3748 20.6291L32.3957 21.3439L33.1248 23.2843L29.1665 24.714L28.5415 22.7737L26.5623 23.4886L25.3123 20.1185C24.7915 20.595 24.1925 20.9525 23.5155 21.1908C22.8384 21.4291 22.1526 21.5142 21.4582 21.4461C20.6943 21.378 19.9825 21.1482 19.3228 20.7567C18.663 20.3653 18.0901 19.8802 17.604 19.3015C16.6665 19.8461 15.9287 20.578 15.3905 21.4971C14.8523 22.4163 14.5832 23.4205 14.5832 24.5098C14.5832 26.2119 15.1908 27.6586 16.4061 28.8501C17.6214 30.0415 19.0971 30.6372 20.8332 30.6372H37.4998V34.7222H27.0832V38.8072H39.5832V42.8921H10.4165ZM28.4373 19.5057L30.3123 18.7908L26.7707 9.19117L24.7915 9.90604L28.4373 19.5057ZM21.8748 18.3823C22.4651 18.3823 22.9599 18.1866 23.3592 17.7951C23.7585 17.4037 23.9582 16.9186 23.9582 16.3399C23.9582 15.7612 23.7585 15.2761 23.3592 14.8846C22.9599 14.4931 22.4651 14.2974 21.8748 14.2974C21.2846 14.2974 20.7898 14.4931 20.3905 14.8846C19.9912 15.2761 19.7915 15.7612 19.7915 16.3399C19.7915 16.9186 19.9912 17.4037 20.3905 17.7951C20.7898 18.1866 21.2846 18.3823 21.8748 18.3823Z" fill="#1E999B"/>
</g>
</svg>
