<svg width="50" height="50" viewBox="0 0 50 50" fill="none" xmlns="http://www.w3.org/2000/svg">
<mask id="mask0_78_3244" style="mask-type:alpha" maskUnits="userSpaceOnUse" x="0" y="0" width="50" height="50">
<rect width="50" height="50" fill="#D9D9D9"/>
</mask>
<g mask="url(#mask0_78_3244)">
<path d="M35.3125 43.0209L37.7083 40.625L34.375 37.2917L31.9792 39.6875C31.4931 40.1737 31.25 40.7292 31.25 41.3542C31.25 41.9792 31.4931 42.5348 31.9792 43.0209C32.4653 43.507 33.0208 43.75 33.6458 43.75C34.2708 43.75 34.8264 43.507 35.3125 43.0209ZM40.625 37.7084L43.0208 35.3125C43.5069 34.8264 43.75 34.2709 43.75 33.6459C43.75 33.0209 43.5069 32.4653 43.0208 31.9792C42.5347 31.4931 41.9792 31.25 41.3542 31.25C40.7292 31.25 40.1736 31.4931 39.6875 31.9792L37.2917 34.375L40.625 37.7084ZM38.2813 45.9896C36.9965 47.2744 35.4514 47.9167 33.6458 47.9167C31.8403 47.9167 30.2951 47.2744 29.0104 45.9896C27.7257 44.7049 27.0833 43.1598 27.0833 41.3542C27.0833 39.5487 27.7257 38.0035 29.0104 36.7188L36.7188 29.0105C38.0035 27.7257 39.5486 27.0834 41.3542 27.0834C43.1597 27.0834 44.7049 27.7257 45.9896 29.0105C47.2743 30.2952 47.9167 31.8403 47.9167 33.6459C47.9167 35.4514 47.2743 36.9966 45.9896 38.2813L38.2813 45.9896ZM10.4167 43.75C9.27083 43.75 8.28993 43.3421 7.47396 42.5261C6.65799 41.7101 6.25 40.7292 6.25 39.5834V10.4167C6.25 9.27087 6.65799 8.28997 7.47396 7.474C8.28993 6.65803 9.27083 6.25004 10.4167 6.25004H19.1667C19.6181 5.00004 20.3733 3.9931 21.4323 3.22921C22.4913 2.46532 23.6806 2.08337 25 2.08337C26.3194 2.08337 27.5087 2.46532 28.5677 3.22921C29.6267 3.9931 30.3819 5.00004 30.8333 6.25004H39.5833C40.7292 6.25004 41.7101 6.65803 42.526 7.474C43.342 8.28997 43.75 9.27087 43.75 10.4167V23.1771C43.0556 23.0035 42.3611 22.9167 41.6667 22.9167C40.9722 22.9167 40.2778 22.9688 39.5833 23.073V10.4167H10.4167V39.5834H23.0729C22.9688 40.2778 22.9167 40.9723 22.9167 41.6667C22.9167 42.3612 23.0035 43.0556 23.1771 43.75H10.4167ZM25 8.85421C25.4514 8.85421 25.8247 8.70664 26.1198 8.4115C26.4149 8.11636 26.5625 7.7431 26.5625 7.29171C26.5625 6.84032 26.4149 6.46705 26.1198 6.17192C25.8247 5.87678 25.4514 5.72921 25 5.72921C24.5486 5.72921 24.1753 5.87678 23.8802 6.17192C23.5851 6.46705 23.4375 6.84032 23.4375 7.29171C23.4375 7.7431 23.5851 8.11636 23.8802 8.4115C24.1753 8.70664 24.5486 8.85421 25 8.85421ZM14.5833 18.75V14.5834H35.4167V18.75H14.5833ZM14.5833 27.0834V22.9167H35.4167V24.6875C35.1389 24.8612 34.8698 25.0608 34.6094 25.2865C34.349 25.5122 34.0799 25.7639 33.8021 26.0417L32.7604 27.0834H14.5833ZM14.5833 35.4167V31.25H28.5938L26.0417 33.8021C25.7639 34.0799 25.5122 34.349 25.2865 34.6094C25.0608 34.8698 24.8611 35.1389 24.6875 35.4167H14.5833Z" fill="#1E999B"/>
</g>
</svg>
