<svg width="51" height="50" viewBox="0 0 51 50" fill="none" xmlns="http://www.w3.org/2000/svg">
<path d="M16.1253 10.4168V10.4168C14.0583 10.4168 13.0248 10.4168 12.2776 10.9044C11.9292 11.1317 11.6319 11.429 11.4046 11.7774C10.917 12.5246 10.917 13.5581 10.917 15.6252V25.0002C10.917 29.1342 10.917 31.2012 11.8921 32.6956C12.3468 33.3924 12.9414 33.987 13.6382 34.4417C15.1326 35.4168 17.1996 35.4168 21.3337 35.4168V35.4168M16.1253 10.4168C16.1253 11.5674 17.0581 12.5002 18.2087 12.5002C19.3593 12.5002 20.292 11.5674 20.292 10.4168C20.292 9.26624 19.3593 8.3335 18.2087 8.3335C17.0581 8.3335 16.1253 9.26624 16.1253 10.4168ZM27.5837 10.4168C27.5837 11.5674 26.6509 12.5002 25.5003 12.5002C24.3497 12.5002 23.417 11.5674 23.417 10.4168C23.417 9.26624 24.3497 8.3335 25.5003 8.3335C26.6509 8.3335 27.5837 9.26624 27.5837 10.4168ZM27.5837 10.4168V10.4168C28.6693 10.4168 29.2121 10.4168 29.6524 10.5557C30.5859 10.85 31.3171 11.5812 31.6115 12.5147C31.7503 12.9551 31.7503 13.4979 31.7503 14.5835V25.0002C31.7503 29.1342 31.7503 31.2012 30.7752 32.6956C30.3205 33.3924 29.7259 33.987 29.0291 34.4417C27.5347 35.4168 25.4677 35.4168 21.3337 35.4168V35.4168M21.3337 35.4168C21.3337 45.8335 39.042 46.8752 39.042 35.4168V27.0835" stroke="#8163B0" stroke-width="1.5"/>
<path d="M42.167 23.9585C42.167 25.6844 40.7679 27.0835 39.042 27.0835C37.3161 27.0835 35.917 25.6844 35.917 23.9585C35.917 22.2326 37.3161 20.8335 39.042 20.8335C40.7679 20.8335 42.167 22.2326 42.167 23.9585Z" stroke="#8163B0" stroke-width="1.5"/>
<path d="M39.042 23.9375H39.0628V23.9584H39.042V23.9375Z" stroke="#8163B0" stroke-width="1.5" stroke-linejoin="round"/>
</svg>
