<svg width="26" height="26" viewBox="0 0 26 26" fill="none" xmlns="http://www.w3.org/2000/svg">
<path d="M5.79548 14.8823L13.9337 5.53061C15.2821 3.98117 17.6313 3.81818 19.1807 5.16657C20.7302 6.51496 20.8931 8.86412 19.5448 10.4136L18.325 11.8152C17.7226 11.5719 17.0644 11.4379 16.3748 11.4379C13.4984 11.4379 11.1665 13.7697 11.1665 16.6462M5.79548 14.8823C4.44709 16.4318 4.61007 18.7809 6.15952 20.1293C8.08 21.8006 10.3878 20.9359 11.8598 19.2444C11.4188 18.4796 11.1665 17.5924 11.1665 16.6462M5.79548 14.8823L10.2715 9.73888C11.0901 11.1779 11.819 12.152 12.7428 12.9132C11.7704 13.8594 11.1665 15.1823 11.1665 16.6462" stroke="#03A8AB" stroke-width="1.5"/>
<path d="M17.3755 6.21386C16.0334 5.86762 15.2196 6.80279 14.8127 7.27038" stroke="#03A8AB" stroke-width="1.5" stroke-linecap="round"/>
<path d="M21.5834 16.6458C21.5834 19.5223 19.2516 21.8542 16.3751 21.8542C13.4986 21.8542 11.1667 19.5223 11.1667 16.6458C11.1667 13.7694 13.4986 11.4375 16.3751 11.4375C19.2516 11.4375 21.5834 13.7694 21.5834 16.6458Z" stroke="#03A8AB" stroke-width="1.5"/>
<path d="M12.8535 17.5898L19.8967 15.7026" stroke="#03A8AB" stroke-width="1.5" stroke-linecap="round"/>
</svg>