<svg width="25" height="25" viewBox="0 0 25 25" fill="none" xmlns="http://www.w3.org/2000/svg">
<path d="M21.0937 13.094V11.8987L22.5937 10.5862C22.8702 10.3425 23.0517 10.0089 23.106 9.64435C23.1603 9.2798 23.084 8.90778 22.8906 8.59404L21.0469 5.46904C20.9099 5.23174 20.7129 5.03465 20.4756 4.89752C20.2384 4.7604 19.9693 4.68807 19.6953 4.68779C19.5255 4.68649 19.3566 4.71287 19.1953 4.76591L17.2969 5.40654C16.9695 5.18802 16.6276 4.99225 16.2734 4.8206L15.875 2.85185C15.8035 2.49217 15.6079 2.16907 15.3222 1.93912C15.0366 1.70917 14.6791 1.58701 14.3125 1.59404H10.6562C10.2896 1.58701 9.93216 1.70917 9.6465 1.93912C9.36085 2.16907 9.16518 2.49217 9.09373 2.85185L8.6953 4.8206C8.33902 4.99298 7.99451 5.18872 7.66405 5.40654L5.80467 4.73466C5.64162 4.69218 5.47278 4.67635 5.30467 4.68779C5.03067 4.68807 4.76155 4.7604 4.52433 4.89752C4.28711 5.03465 4.09011 5.23174 3.95311 5.46904L2.10936 8.59404C1.927 8.90731 1.85924 9.27424 1.91768 9.63198C1.97611 9.98972 2.15711 10.316 2.42967 10.555L3.90623 11.9065V13.1018L2.42967 14.4143C2.14941 14.655 1.96346 14.9871 1.90483 15.3518C1.84619 15.7165 1.91865 16.0902 2.10936 16.4065L3.95311 19.5315C4.09011 19.7688 4.28711 19.9659 4.52433 20.1031C4.76155 20.2402 5.03067 20.3125 5.30467 20.3128C5.47448 20.3141 5.64336 20.2877 5.80467 20.2347L7.70311 19.594C8.03044 19.8126 8.37239 20.0083 8.72655 20.18L9.12498 22.1487C9.19642 22.5084 9.3921 22.8315 9.67775 23.0615C9.96341 23.2914 10.3208 23.4136 10.6875 23.4065H14.375C14.7416 23.4136 15.0991 23.2914 15.3847 23.0615C15.6704 22.8315 15.866 22.5084 15.9375 22.1487L16.3359 20.18C16.6922 20.0076 17.0367 19.8119 17.3672 19.594L19.2578 20.2347C19.4191 20.2877 19.588 20.3141 19.7578 20.3128C20.0318 20.3125 20.3009 20.2402 20.5381 20.1031C20.7754 19.9659 20.9724 19.7688 21.1094 19.5315L22.8906 16.4065C23.073 16.0933 23.1407 15.7263 23.0823 15.3686C23.0239 15.0109 22.8429 14.6846 22.5703 14.4456L21.0937 13.094ZM19.6953 18.7503L17.0156 17.844C16.3879 18.3748 15.6711 18.7901 14.8984 19.0706L14.3437 21.8753H10.6562L10.1015 19.1019C9.33494 18.8135 8.62198 18.3989 7.99217 17.8753L5.30467 18.7503L3.46092 15.6253L5.58592 13.7503C5.44147 12.9416 5.44147 12.1137 5.58592 11.305L3.46092 9.37529L5.30467 6.25029L7.98436 7.15654C8.61204 6.62575 9.32886 6.21046 10.1015 5.92998L10.6562 3.12529H14.3437L14.8984 5.89873C15.665 6.18709 16.378 6.60166 17.0078 7.12529L19.6953 6.25029L21.539 9.37529L19.414 11.2503C19.5585 12.059 19.5585 12.8869 19.414 13.6956L21.539 15.6253L19.6953 18.7503Z" fill="#0087D0"/>
<path d="M12.5 17.1875C11.5729 17.1875 10.6666 16.9126 9.89577 16.3975C9.12491 15.8824 8.5241 15.1504 8.16932 14.2938C7.81453 13.4373 7.7217 12.4948 7.90257 11.5855C8.08344 10.6762 8.52988 9.841 9.18544 9.18544C9.841 8.52988 10.6762 8.08344 11.5855 7.90257C12.4948 7.7217 13.4373 7.81453 14.2938 8.16932C15.1504 8.5241 15.8824 9.12491 16.3975 9.89577C16.9126 10.6666 17.1875 11.5729 17.1875 12.5C17.1938 13.1173 17.0768 13.7297 16.8435 14.3012C16.6101 14.8728 16.2651 15.392 15.8285 15.8285C15.392 16.2651 14.8728 16.6101 14.3012 16.8435C13.7297 17.0768 13.1173 17.1938 12.5 17.1875ZM12.5 9.375C12.087 9.36538 11.6763 9.43964 11.2928 9.59328C10.9093 9.74692 10.561 9.97675 10.2689 10.2689C9.97675 10.561 9.74692 10.9093 9.59328 11.2928C9.43964 11.6763 9.36538 12.087 9.375 12.5C9.36538 12.913 9.43964 13.3237 9.59328 13.7072C9.74692 14.0907 9.97675 14.439 10.2689 14.7311C10.561 15.0233 10.9093 15.2531 11.2928 15.4067C11.6763 15.5604 12.087 15.6346 12.5 15.625C12.913 15.6346 13.3237 15.5604 13.7072 15.4067C14.0907 15.2531 14.439 15.0233 14.7311 14.7311C15.0233 14.439 15.2531 14.0907 15.4067 13.7072C15.5604 13.3237 15.6346 12.913 15.625 12.5C15.6346 12.087 15.5604 11.6763 15.4067 11.2928C15.2531 10.9093 15.0233 10.561 14.7311 10.2689C14.439 9.97675 14.0907 9.74692 13.7072 9.59328C13.3237 9.43964 12.913 9.36538 12.5 9.375Z" fill="#0087D0"/>
</svg>