<svg width="26" height="26" viewBox="0 0 26 26" fill="none" xmlns="http://www.w3.org/2000/svg">
<path d="M8.06266 5.70866V5.70866C6.62442 5.70866 5.4585 6.87458 5.4585 8.31282V13.0003C5.4585 15.8768 7.79035 18.2087 10.6668 18.2087V18.2087M8.06266 5.70866C8.06266 6.28396 8.52903 6.75033 9.10433 6.75033C9.67963 6.75033 10.146 6.28396 10.146 5.70866C10.146 5.13336 9.67963 4.66699 9.10433 4.66699C8.52903 4.66699 8.06266 5.13336 8.06266 5.70866ZM13.7918 5.70866C13.7918 6.28396 13.3255 6.75033 12.7502 6.75033C12.1749 6.75033 11.7085 6.28396 11.7085 5.70866C11.7085 5.13336 12.1749 4.66699 12.7502 4.66699C13.3255 4.66699 13.7918 5.13336 13.7918 5.70866ZM13.7918 5.70866V5.70866C14.9424 5.70866 15.8752 6.6414 15.8752 7.79199V13.0003C15.8752 15.8768 13.5433 18.2087 10.6668 18.2087V18.2087M10.6668 18.2087C10.6668 23.417 19.521 23.9378 19.521 18.2087V14.042" stroke="#03A8AB" stroke-width="1.5"/>
<path d="M21.0835 12.4795C21.0835 13.3424 20.3839 14.042 19.521 14.042C18.6581 14.042 17.9585 13.3424 17.9585 12.4795C17.9585 11.6165 18.6581 10.917 19.521 10.917C20.3839 10.917 21.0835 11.6165 21.0835 12.4795Z" stroke="#03A8AB" stroke-width="1.5"/>
<path d="M19.5208 12.4688H19.5308V12.4788H19.5208V12.4688Z" stroke="#03A8AB" stroke-width="1.5" stroke-linejoin="round"/>
</svg>