<svg width="21" height="23" viewBox="0 0 21 23" fill="none" xmlns="http://www.w3.org/2000/svg">
<path d="M10.5 20.3659C11.7661 20.3659 12.287 21.0482 12.9656 21.1997C13.6443 21.3518 14.2141 21.3935 14.7974 21.1367C15.9531 20.6274 16.6573 20.0211 17.512 19.1154C19.0964 17.4362 19.875 15.1284 19.875 12.0372C19.875 8.9461 19.0417 7.34819 17.7568 6.30339C16.4719 5.2586 15.7276 5.0586 14.1745 5.2586C12.6214 5.4586 11.7755 7.12787 10.5042 7.12787C9.23281 7.12787 7.68385 5.48204 6.33646 5.2586C4.98854 5.03464 4.25 5.2586 3.08333 6.30339C1.91667 7.34819 1.125 8.97527 1.125 12.0378C1.125 15.0992 1.93333 17.369 3.51719 19.0482C4.37135 19.9539 5.04687 20.6279 6.2026 21.1367C6.78594 21.394 7.38906 21.3524 8.04375 21.2003C8.69896 21.0492 9.21979 20.3669 10.5 20.3669V20.3659Z" stroke="#EB5874" stroke-width="1.5"/>
<path d="M10.5047 7.12721C10.9134 3.09839 12.6496 1.08398 15.7135 1.08398C15.9948 1.93155 16.0674 2.75221 15.9312 3.54596C15.867 3.9227 15.6668 4.46003 15.3307 5.15794M5.41093 12.5423C5.26683 13.2434 5.26683 13.9651 5.41093 14.7074C5.55468 15.4494 5.86145 16.0224 6.33124 16.4262" stroke="#EA526F" stroke-width="1.5" stroke-linecap="round"/>
</svg>