<svg width="53" height="53" viewBox="0 0 53 53" fill="none" xmlns="http://www.w3.org/2000/svg">
<path d="M19.0463 46.1102C14.9889 44.2126 11.6922 41.3463 9.1563 37.5114C6.62039 33.6766 5.35244 29.3475 5.35244 24.5243C5.35244 23.4964 5.40121 22.4882 5.49874 21.4999C5.59628 20.5115 5.76209 19.5429 5.99617 18.5941L3.30421 20.1952L0.963379 16.1034L12.1409 9.58015L18.5781 20.8475L14.4817 23.2196L11.3216 17.6452C10.8924 18.7127 10.5705 19.8196 10.356 20.9662C10.1414 22.1127 10.0341 23.2987 10.0341 24.5243C10.0341 28.3591 11.068 31.8481 13.1357 34.9911C15.2034 38.1341 17.9539 40.4568 21.3872 41.9591L19.0463 46.1102ZM36.9537 17.3487V12.6046H43.3325C41.5378 10.3511 39.3726 8.60167 36.8367 7.35632C34.3007 6.11098 31.6088 5.48831 28.7608 5.48831C26.615 5.48831 24.5863 5.82435 22.6746 6.49644C20.7629 7.16853 19.0073 8.11737 17.4077 9.34294L15.0669 5.1918C17.0176 3.80808 19.1439 2.72088 21.4457 1.93018C23.7475 1.13949 26.1859 0.744141 28.7608 0.744141C31.8429 0.744141 34.7884 1.32728 37.5974 2.49355C40.4064 3.65983 42.9228 5.34994 45.1466 7.56388V4.30227H49.8283V17.3487H36.9537ZM35.4322 52.93L24.2547 46.4067L30.692 35.1394L34.7299 37.5114L31.3942 43.323C35.9979 42.651 39.831 40.5358 42.8936 36.9777C45.9562 33.4196 47.4874 29.2487 47.4874 24.465C47.4874 24.0301 47.4777 23.6249 47.4582 23.2493C47.4387 22.8737 47.3899 22.4882 47.3119 22.0929H52.0521C52.0911 22.4882 52.1203 22.8737 52.1399 23.2493C52.1594 23.6249 52.1691 24.0301 52.1691 24.465C52.1691 29.8022 50.5988 34.576 47.4582 38.7864C44.3176 42.9969 40.2309 45.8335 35.1981 47.2963L37.773 48.8381L35.4322 52.93Z" fill="white"/>
</svg>