<svg width="43" height="43" viewBox="0 0 43 43" fill="none" xmlns="http://www.w3.org/2000/svg">
<path d="M39.5208 15.9241L36.6042 13.0075L38.1667 11.3929L31.5 4.72622L29.8854 6.28872L26.9167 3.31997L28.4792 1.70539C29.2778 0.906777 30.2674 0.516152 31.4479 0.533513C32.6285 0.550874 33.6181 0.95886 34.4167 1.75747L41.1354 8.47622C41.934 9.27483 42.3333 10.2557 42.3333 11.4189C42.3333 12.5821 41.934 13.563 41.1354 14.3616L39.5208 15.9241ZM14.5208 40.9762C13.7222 41.7748 12.7413 42.1741 11.5781 42.1741C10.4149 42.1741 9.43403 41.7748 8.63542 40.9762L1.91667 34.2575C1.11806 33.4589 0.71875 32.478 0.71875 31.3148C0.71875 30.1516 1.11806 29.1707 1.91667 28.3721L3.47917 26.8096L6.44792 29.7783L4.83333 31.3408L11.5521 38.0596L13.1146 36.445L16.0833 39.4137L14.5208 40.9762ZM35.1979 23.4762L38.1667 20.5075L22.3854 4.72622L19.4167 7.69497L35.1979 23.4762ZM20.6146 38.0596L23.5833 35.0387L7.85417 19.3096L4.83333 22.2783L20.6146 38.0596ZM20.3021 25.8721L26.0312 20.195L22.6979 16.8616L17.0208 22.5908L20.3021 25.8721ZM23.5833 40.9762C22.7847 41.7748 21.7951 42.1741 20.6146 42.1741C19.434 42.1741 18.4444 41.7748 17.6458 40.9762L1.91667 25.2471C1.11806 24.4484 0.71875 23.4589 0.71875 22.2783C0.71875 21.0977 1.11806 20.1082 1.91667 19.3096L4.88542 16.3408C5.68403 15.5422 6.66493 15.1429 7.82812 15.1429C8.99132 15.1429 9.97222 15.5422 10.7708 16.3408L14.0521 19.6221L19.7812 13.8929L16.5 10.6637C15.7014 9.86511 15.3021 8.87553 15.3021 7.69497C15.3021 6.51442 15.7014 5.52483 16.5 4.72622L19.4688 1.75747C20.2674 0.95886 21.2483 0.559555 22.4115 0.559555C23.5747 0.559555 24.5556 0.95886 25.3542 1.75747L41.1354 17.5387C41.934 18.3373 42.3333 19.3182 42.3333 20.4814C42.3333 21.6446 41.934 22.6255 41.1354 23.4241L38.1667 26.3929C37.3681 27.1915 36.3785 27.5908 35.1979 27.5908C34.0174 27.5908 33.0278 27.1915 32.2292 26.3929L29 23.1116L23.2708 28.8408L26.5521 32.1221C27.3507 32.9207 27.75 33.9016 27.75 35.0648C27.75 36.228 27.3507 37.2089 26.5521 38.0075L23.5833 40.9762Z" fill="#FF8A5B"/>
</svg>