<svg width="25" height="26" viewBox="0 0 25 26" fill="none" xmlns="http://www.w3.org/2000/svg">
<path d="M21.4252 13.0003C21.7174 12.0686 21.875 11.1343 21.875 10.2282C21.875 7.15412 19.5406 4.66699 16.6625 4.66699C14.9656 4.66699 13.4469 5.54246 12.5 6.89546C11.5531 5.54246 10.0437 4.66699 8.3375 4.66699C5.45937 4.66699 3.125 7.15412 3.125 10.2282C3.125 11.3718 3.30458 12.4743 3.63577 13.5212M21.4252 13.0003C20.2149 16.8597 16.6954 20.676 12.5 22.2665C8.37292 20.7019 4.89991 17.5169 3.63577 13.5212M21.4252 13.0003H18.8579C18.7888 13.0003 18.7226 12.9729 18.6737 12.9241L17.443 11.6933C17.3173 11.5676 17.1054 11.602 17.0259 11.761L15.7866 14.2397C15.7071 14.3986 15.4952 14.433 15.3695 14.3073L14.2799 13.2177C14.1661 13.1039 13.9774 13.1195 13.8838 13.2505L11.7941 16.1761C11.6637 16.3586 11.3789 16.3019 11.3284 16.0833L10.0482 10.5355C9.99455 10.3031 9.68263 10.2591 9.56679 10.4676L7.48669 14.2118C7.39507 14.3767 7.16392 14.3925 7.05072 14.2416L5.90932 12.7197C5.81424 12.5929 5.62891 12.5797 5.51685 12.6918L4.76377 13.4449C4.71494 13.4937 4.6487 13.5212 4.57963 13.5212H4.11273H3.63577" stroke="#03A8AB" stroke-width="1.5" stroke-linecap="round" stroke-linejoin="round"/>
</svg>