<svg width="51" height="50" viewBox="0 0 51 50" fill="none" xmlns="http://www.w3.org/2000/svg">
<path d="M10.591 28.7642L26.8675 10.0607C29.5642 6.96185 34.2625 6.63588 37.3614 9.33265C40.4603 12.0294 40.7863 16.7277 38.0895 19.8266L35.6499 22.63C34.4453 22.1432 33.1288 21.8752 31.7497 21.8752C25.9967 21.8752 21.333 26.5389 21.333 32.2919M10.591 28.7642C7.89418 31.8631 8.22015 36.5614 11.319 39.2582C15.16 42.6007 19.7756 40.8713 22.7197 37.4883C21.8376 35.9588 21.333 34.1843 21.333 32.2919M10.591 28.7642L19.543 18.4773C21.1803 21.3554 22.638 23.3034 24.4855 24.826C22.5409 26.7184 21.333 29.3641 21.333 32.2919" stroke="#0087D0" stroke-width="1.5"/>
<path d="M33.751 11.4287C31.0668 10.7362 29.4392 12.6066 28.6253 13.5417" stroke="#0087D0" stroke-width="1.5" stroke-linecap="round"/>
<path d="M42.1663 32.2917C42.1663 38.0446 37.5026 42.7083 31.7497 42.7083C25.9967 42.7083 21.333 38.0446 21.333 32.2917C21.333 26.5387 25.9967 21.875 31.7497 21.875C37.5026 21.875 42.1663 26.5387 42.1663 32.2917Z" stroke="#0087D0" stroke-width="1.5"/>
<path d="M24.707 34.1787L38.7934 30.4043" stroke="#0087D0" stroke-width="1.5" stroke-linecap="round"/>
</svg>