<svg width="51" height="50" viewBox="0 0 51 50" fill="none" xmlns="http://www.w3.org/2000/svg">
<path d="M14.0137 18.7498V13.4165C14.0137 12.0023 14.0137 11.2952 14.453 10.8558C14.8924 10.4165 15.5995 10.4165 17.0137 10.4165H33.9866C35.4009 10.4165 36.108 10.4165 36.5473 10.8558C36.9866 11.2952 36.9866 12.0023 36.9866 13.4165V18.7498M14.0137 18.7498H36.9866M14.0137 18.7498V37.4998M36.9866 18.7498V37.4998M14.0137 37.4998V39.9616C14.0137 41.3758 14.0137 42.0829 14.453 42.5222C14.8924 42.9616 15.5995 42.9616 17.0137 42.9616H33.9866C35.4009 42.9616 36.108 42.9616 36.5473 42.5222C36.9866 42.0829 36.9866 41.3758 36.9866 39.9616V37.4998M14.0137 37.4998H36.9866" stroke="#0087D0"/>
<path d="M17.8428 8.54492C17.8428 8.07351 17.8428 7.83781 17.9892 7.69136C18.1357 7.54492 18.3714 7.54492 18.8428 7.54492H32.1581C32.6295 7.54492 32.8652 7.54492 33.0116 7.69136C33.1581 7.83781 33.1581 8.07351 33.1581 8.54492V9.41654C33.1581 9.88794 33.1581 10.1236 33.0116 10.2701C32.8652 10.4165 32.6295 10.4165 32.1581 10.4165H18.8428C18.3714 10.4165 18.1357 10.4165 17.9892 10.2701C17.8428 10.1236 17.8428 9.88794 17.8428 9.41654V8.54492Z" stroke="#0087D0"/>
<path d="M23.6463 23.7203C23.5472 23.9596 23.5472 24.2629 23.5472 24.8696V26.1092C23.5472 26.1387 23.5472 26.1534 23.538 26.1626C23.5289 26.1717 23.5142 26.1717 23.4847 26.1717H22.2451C21.6384 26.1717 21.3351 26.1717 21.0958 26.2708C20.7767 26.403 20.5233 26.6565 20.3911 26.9755C20.292 27.2148 20.292 27.5181 20.292 28.1248C20.292 28.7315 20.292 29.0349 20.3911 29.2742C20.5233 29.5932 20.7767 29.8467 21.0958 29.9788C21.3351 30.078 21.6384 30.078 22.2451 30.078H23.4847C23.5142 30.078 23.5289 30.078 23.538 30.0871C23.5472 30.0963 23.5472 30.111 23.5472 30.1405V31.38C23.5472 31.9867 23.5472 32.2901 23.6463 32.5294C23.7785 32.8484 24.032 33.1019 24.351 33.2341C24.5903 33.3332 24.8936 33.3332 25.5003 33.3332C26.107 33.3332 26.4104 33.3332 26.6497 33.2341C26.9687 33.1019 27.2222 32.8484 27.3543 32.5294C27.4535 32.2901 27.4535 31.9867 27.4535 31.38V30.1405C27.4535 30.111 27.4535 30.0963 27.4626 30.0871C27.4718 30.078 27.4865 30.078 27.516 30.078H28.7555C29.3622 30.078 29.6656 30.078 29.9049 29.9788C30.2239 29.8467 30.4774 29.5932 30.6095 29.2742C30.7087 29.0349 30.7087 28.7315 30.7087 28.1248C30.7087 27.5181 30.7087 27.2148 30.6095 26.9755C30.4774 26.6565 30.2239 26.403 29.9049 26.2708C29.6656 26.1717 29.3622 26.1717 28.7555 26.1717H27.516C27.4865 26.1717 27.4718 26.1717 27.4626 26.1626C27.4535 26.1534 27.4535 26.1387 27.4535 26.1092V24.8696C27.4535 24.2629 27.4535 23.9596 27.3543 23.7203C27.2222 23.4013 26.9687 23.1478 26.6497 23.0156C26.4104 22.9165 26.107 22.9165 25.5003 22.9165C24.8936 22.9165 24.5903 22.9165 24.351 23.0156C24.032 23.1478 23.7785 23.4013 23.6463 23.7203Z" stroke="#0087D0"/>
</svg>