<svg width="39" height="38" viewBox="0 0 39 38" fill="none" xmlns="http://www.w3.org/2000/svg">
<path d="M37.3504 18.0002C37.9348 16.1366 38.25 14.2681 38.25 12.4559C38.25 6.30775 33.5812 1.3335 27.825 1.3335C24.4312 1.3335 21.3937 3.08443 19.5 5.79043C17.6062 3.08443 14.5875 1.3335 11.175 1.3335C5.41875 1.3335 0.75 6.30775 0.75 12.4559C0.75 14.7431 1.10915 16.9481 1.77154 19.0418M37.3504 18.0002C34.9299 25.7188 27.8908 33.3515 19.5 36.5325C11.2458 33.4033 4.29981 27.0333 1.77154 19.0418M37.3504 18.0002H32.2157C32.0776 18.0002 31.9451 17.9453 31.8475 17.8476L29.386 15.3861C29.1346 15.1348 28.7108 15.2035 28.5518 15.5215L26.0732 20.4788C25.9142 20.7968 25.4904 20.8656 25.239 20.6142L23.0597 18.4349C22.8322 18.2073 22.4547 18.2386 22.2676 18.5005L18.0882 24.3517C17.8274 24.7168 17.2578 24.6033 17.1569 24.1661L14.5964 13.0705C14.4891 12.6057 13.8653 12.5177 13.6336 12.9347L9.47339 20.4231C9.29013 20.7529 8.82784 20.7845 8.60143 20.4826L6.31865 17.4389C6.12848 17.1854 5.75782 17.159 5.5337 17.3831L4.02755 18.8893C3.92987 18.987 3.7974 19.0418 3.65926 19.0418H2.72547H1.77154" stroke="#03A8AB" stroke-width="1.5" stroke-linecap="round" stroke-linejoin="round"/>
</svg>
