<svg width="43" height="44" viewBox="0 0 43 44" fill="none" xmlns="http://www.w3.org/2000/svg">
<path d="M4.91667 12.613H34.0833V8.44637H4.91667V12.613ZM4.91667 41.7797C3.77083 41.7797 2.78993 41.3717 1.97396 40.5557C1.15799 39.7398 0.75 38.7589 0.75 37.613V8.44637C0.75 7.30054 1.15799 6.31963 1.97396 5.50366C2.78993 4.68769 3.77083 4.2797 4.91667 4.2797H7V0.113037H11.1667V4.2797H27.8333V0.113037H32V4.2797H34.0833C35.2292 4.2797 36.2101 4.68769 37.026 5.50366C37.842 6.31963 38.25 7.30054 38.25 8.44637V20.2693C37.5903 19.9568 36.9132 19.6964 36.2188 19.488C35.5243 19.2797 34.8125 19.1235 34.0833 19.0193V16.7797H4.91667V37.613H18.0417C18.2847 38.3769 18.5712 39.1061 18.901 39.8005C19.2309 40.495 19.6215 41.1547 20.0729 41.7797H4.91667ZM32 43.863C29.1181 43.863 26.6615 42.8474 24.6302 40.8162C22.599 38.7849 21.5833 36.3283 21.5833 33.4464C21.5833 30.5644 22.599 28.1078 24.6302 26.0766C26.6615 24.0453 29.1181 23.0297 32 23.0297C34.8819 23.0297 37.3385 24.0453 39.3698 26.0766C41.401 28.1078 42.4167 30.5644 42.4167 33.4464C42.4167 36.3283 41.401 38.7849 39.3698 40.8162C37.3385 42.8474 34.8819 43.863 32 43.863ZM35.4896 38.3943L36.9479 36.936L33.0417 33.0297V27.1964H30.9583V33.863L35.4896 38.3943Z" fill="#25CED1"/>
</svg>