<svg width="55" height="54" viewBox="0 0 55 54" fill="none" xmlns="http://www.w3.org/2000/svg">
<path d="M5.96596 43.2C7.7725 48.195 11.5474 54 27.5366 54C33.9 54 41.2071 53.811 46.411 48.6C49.1073 45.9 54.5 40.5 54.5 24.3C54.5 8.1 49.1073 5.4 43.7147 5.4C39.9937 5.4 35.6257 5.4 32.9293 10.8V10.881C32.444 11.7622 31.7002 12.473 30.7985 12.9172C29.8967 13.3615 28.8805 13.5178 27.8872 13.365C24.8403 12.987 24.8403 11.799 24.8403 10.8V0H19.4476V10.8C19.4179 11.8718 19.6068 12.9384 20.0028 13.9346C20.3987 14.9308 20.9935 15.8357 21.7506 16.5939C22.5078 17.352 23.4114 17.9476 24.4063 18.3441C25.4011 18.7406 26.4663 18.9298 27.5366 18.9C30.233 18.9 30.233 23.706 30.233 27C30.233 32.103 28.8848 35.802 24.8403 37.8C18.6118 40.905 12.4102 40.5 10.3071 36.369C10.0905 35.7182 9.71239 35.1332 9.20824 34.6688C8.70408 34.2043 8.09038 33.8757 7.4247 33.7138C6.75902 33.5519 6.06317 33.5619 5.40243 33.743C4.74168 33.9241 4.1377 34.2702 3.64711 34.749C2.5054 35.815 1.63174 37.1364 1.09752 38.6052C0.56329 40.0739 0.383656 41.6484 0.573288 43.2V54H5.96596V43.2Z" fill="#009FF5"/>
</svg>