<svg width="39" height="43" viewBox="0 0 39 43" fill="none" xmlns="http://www.w3.org/2000/svg">
<path d="M20.2292 33.0981C18.8403 34.487 17.1562 35.1814 15.1771 35.1814C13.1979 35.1814 11.5139 34.487 10.125 33.0981C8.73611 31.7092 8.04167 30.0338 8.04167 28.072C8.04167 26.1102 8.73611 24.4349 10.125 23.046L18.7708 14.3481C20.1597 12.9592 21.8437 12.2647 23.8229 12.2647C25.8021 12.2647 27.4861 12.9592 28.875 14.3481C30.2639 15.737 30.9583 17.4123 30.9583 19.3741C30.9583 21.3359 30.2639 23.0113 28.875 24.4001L20.2292 33.0981ZM13.0417 30.1293C13.8403 30.9279 14.6649 31.2144 15.5156 30.9887C16.3663 30.763 16.9479 30.4939 17.2604 30.1814L20.125 27.2647L15.9583 23.0981L13.0417 25.9626C12.4514 26.5529 12.1562 27.2474 12.1562 28.046C12.1562 28.8446 12.4514 29.539 13.0417 30.1293ZM25.9583 17.3168C25.1597 16.5182 24.3351 16.2317 23.4844 16.4574C22.6337 16.6831 22.0521 16.9522 21.7396 17.2647L18.875 20.1814L23.0417 24.3481L25.9583 21.4835C26.5486 20.8932 26.8438 20.1988 26.8438 19.4001C26.8438 18.6015 26.5486 17.9071 25.9583 17.3168ZM4.91667 42.4731C3.77083 42.4731 2.78993 42.0651 1.97396 41.2491C1.15799 40.4331 0.75 39.4522 0.75 38.3064V9.13973C0.75 7.9939 1.15799 7.01299 1.97396 6.19702C2.78993 5.38105 3.77083 4.97306 4.91667 4.97306H13.6667C14.1181 3.72306 14.8733 2.71612 15.9323 1.95223C16.9913 1.18834 18.1806 0.806396 19.5 0.806396C20.8194 0.806396 22.0087 1.18834 23.0677 1.95223C24.1267 2.71612 24.8819 3.72306 25.3333 4.97306H34.0833C35.2292 4.97306 36.2101 5.38105 37.026 6.19702C37.842 7.01299 38.25 7.9939 38.25 9.13973V38.3064C38.25 39.4522 37.842 40.4331 37.026 41.2491C36.2101 42.0651 35.2292 42.4731 34.0833 42.4731H4.91667ZM4.91667 38.3064H34.0833V9.13973H4.91667V38.3064ZM19.5 7.57723C19.9514 7.57723 20.3247 7.42966 20.6198 7.13452C20.9149 6.83938 21.0625 6.46612 21.0625 6.01473C21.0625 5.56334 20.9149 5.19008 20.6198 4.89494C20.3247 4.5998 19.9514 4.45223 19.5 4.45223C19.0486 4.45223 18.6753 4.5998 18.3802 4.89494C18.0851 5.19008 17.9375 5.56334 17.9375 6.01473C17.9375 6.46612 18.0851 6.83938 18.3802 7.13452C18.6753 7.42966 19.0486 7.57723 19.5 7.57723Z" fill="#25CED1"/>
</svg>