<svg width="43" height="44" viewBox="0 0 43 44" fill="none" xmlns="http://www.w3.org/2000/svg">
<path d="M4.91667 12.6667H34.0833V8.50008H4.91667V12.6667ZM4.91667 41.8334C3.77083 41.8334 2.78993 41.4254 1.97396 40.6095C1.15799 39.7935 0.75 38.8126 0.75 37.6667V8.50008C0.75 7.35425 1.15799 6.37335 1.97396 5.55737C2.78993 4.7414 3.77083 4.33341 4.91667 4.33341H7V0.166748H11.1667V4.33341H27.8333V0.166748H32V4.33341H34.0833C35.2292 4.33341 36.2101 4.7414 37.026 5.55737C37.842 6.37335 38.25 7.35425 38.25 8.50008V20.323C37.5903 20.0105 36.9132 19.7501 36.2188 19.5417C35.5243 19.3334 34.8125 19.1772 34.0833 19.073V16.8334H4.91667V37.6667H18.0417C18.2847 38.4306 18.5712 39.1598 18.901 39.8542C19.2309 40.5487 19.6215 41.2084 20.0729 41.8334H4.91667ZM32 43.9167C29.1181 43.9167 26.6615 42.9011 24.6302 40.8699C22.599 38.8386 21.5833 36.382 21.5833 33.5001C21.5833 30.6181 22.599 28.1615 24.6302 26.1303C26.6615 24.099 29.1181 23.0834 32 23.0834C34.8819 23.0834 37.3385 24.099 39.3698 26.1303C41.401 28.1615 42.4167 30.6181 42.4167 33.5001C42.4167 36.382 41.401 38.8386 39.3698 40.8699C37.3385 42.9011 34.8819 43.9167 32 43.9167ZM35.4896 38.448L36.9479 36.9897L33.0417 33.0834V27.2501H30.9583V33.9167L35.4896 38.448Z" fill="#25CED1"/>
</svg>