<svg width="25" height="25" viewBox="0 0 25 25" fill="none" xmlns="http://www.w3.org/2000/svg">
<path d="M5.0456 14.3823L13.1838 5.03061C14.5322 3.48117 16.8814 3.31818 18.4308 4.66657C19.9803 6.01496 20.1433 8.36412 18.7949 9.91356L17.5751 11.3152C16.9728 11.0719 16.3145 10.9379 15.625 10.9379C12.7485 10.9379 10.4166 13.2697 10.4166 16.1462M5.0456 14.3823C3.69721 15.9318 3.8602 18.2809 5.40964 19.6293C7.33012 21.3006 9.63792 20.4359 11.11 18.7444C10.6689 17.9796 10.4166 17.0924 10.4166 16.1462M5.0456 14.3823L9.52164 9.23888C10.3403 10.6779 11.0691 11.652 11.9929 12.4132C11.0206 13.3594 10.4166 14.6823 10.4166 16.1462" stroke="#2EB7B9" stroke-width="1.5"/>
<path d="M16.6254 5.71386C15.2833 5.36762 14.4695 6.30279 14.0625 6.77038" stroke="#2EB7B9" stroke-width="1.5" stroke-linecap="round"/>
<path d="M20.8333 16.1458C20.8333 19.0223 18.5014 21.3542 15.625 21.3542C12.7485 21.3542 10.4166 19.0223 10.4166 16.1458C10.4166 13.2694 12.7485 10.9375 15.625 10.9375C18.5014 10.9375 20.8333 13.2694 20.8333 16.1458Z" stroke="#2EB7B9" stroke-width="1.5"/>
<path d="M12.1034 17.0889L19.1466 15.2016" stroke="#2EB7B9" stroke-width="1.5" stroke-linecap="round"/>
</svg>