<svg width="17" height="21" viewBox="0 0 17 21" fill="none" xmlns="http://www.w3.org/2000/svg">
<mask id="path-1-inside-1_1077_3259" fill="white">
<path d="M11.8854 4.77051C12.507 4.77051 13.1032 4.52358 13.5427 4.08404C13.9823 3.6445 14.2292 3.04836 14.2292 2.42676C14.2292 1.80516 13.9823 1.20901 13.5427 0.769476C13.1032 0.329938 12.507 0.0830078 11.8854 0.0830078C11.2638 0.0830078 10.6677 0.329938 10.2282 0.769476C9.78862 1.20901 9.54169 1.80516 9.54169 2.42676C9.54169 3.04836 9.78862 3.6445 10.2282 4.08404C10.6677 4.52358 11.2638 4.77051 11.8854 4.77051ZM7.17711 7.00072C6.52763 7.16217 6.0844 7.40488 5.72659 7.70592C5.19013 8.15801 4.7568 8.81009 4.17138 9.83509C4.03428 10.075 3.80751 10.2505 3.54096 10.3232C3.2744 10.3959 2.98989 10.3597 2.75003 10.2226C2.51016 10.0855 2.33457 9.85872 2.2619 9.59217C2.18923 9.32561 2.22543 9.04111 2.36253 8.80124C2.94534 7.78197 3.5344 6.82832 4.38492 6.11269C5.27242 5.36478 6.35888 4.94186 7.82398 4.77884C8.43648 4.71113 9.11044 4.72467 9.74221 5.00644C10.4052 5.3028 10.8896 5.83353 11.2198 6.5429C11.6646 7.49759 11.9953 8.06582 12.2599 8.39551C12.3875 8.55332 12.4766 8.62676 12.5271 8.65957C12.5672 8.68561 12.5844 8.6877 12.5907 8.68874C12.636 8.69394 12.7834 8.68874 13.2146 8.49759C13.4026 8.41426 13.6078 8.31426 13.8589 8.19186L13.9188 8.16269C14.2258 8.01122 14.5356 7.86536 14.8479 7.7252C15.1001 7.61448 15.3859 7.60815 15.6428 7.70759C15.8996 7.80703 16.1066 8.00415 16.2185 8.25582C16.3304 8.50749 16.3381 8.79323 16.2398 9.05054C16.1416 9.30784 15.9454 9.51577 15.6943 9.62884C15.4048 9.75872 15.1178 9.89399 14.8334 10.0346L14.7651 10.0679C14.525 10.1851 14.2834 10.3033 14.0568 10.4033C13.588 10.6106 12.9891 10.8356 12.3396 10.757C11.6542 10.6736 11.1261 10.2867 10.6912 9.76738L9.26774 12.5137L11.2365 15.0752C11.3537 15.2283 11.4261 15.4106 11.4464 15.6023L11.8797 19.7669C11.8962 19.9041 11.8853 20.0432 11.8475 20.1761C11.8097 20.3091 11.7458 20.4331 11.6596 20.5412C11.5734 20.6492 11.4665 20.7389 11.3453 20.8052C11.224 20.8715 11.0908 20.9131 10.9533 20.9274C10.8159 20.9417 10.6769 20.9285 10.5446 20.8886C10.4123 20.8487 10.2893 20.7828 10.1827 20.6949C10.0761 20.6069 9.98801 20.4986 9.92366 20.3763C9.85931 20.254 9.81994 20.1202 9.80784 19.9825L9.40471 16.1111L8.20888 14.5549L8.19846 14.5742L8.15471 14.4846L5.94534 11.6096C5.83673 11.4683 5.76619 11.3014 5.74048 11.1251C5.71476 10.9487 5.73473 10.7687 5.79846 10.6023L7.17711 7.00072Z"/>
</mask>
<path d="M11.8854 4.77051V5.57051V4.77051ZM11.8854 0.0830078V-0.716992V0.0830078ZM7.17711 7.00072L7.92424 7.28671L8.47255 5.85432L6.98411 6.22435L7.17711 7.00072ZM5.72659 7.70592L5.21155 7.09376L5.21106 7.09418L5.72659 7.70592ZM4.17138 9.83509L4.86594 10.2321L4.86606 10.2319L4.17138 9.83509ZM2.36253 8.80124L1.66804 8.40413L1.66797 8.40426L2.36253 8.80124ZM4.38492 6.11269L4.89998 6.72484L4.90045 6.72444L4.38492 6.11269ZM7.82398 4.77884L7.73608 3.98368L7.73552 3.98375L7.82398 4.77884ZM9.74221 5.00644L10.0687 4.27608L10.0681 4.27582L9.74221 5.00644ZM11.2198 6.5429L10.4945 6.88051L10.4947 6.88076L11.2198 6.5429ZM12.2599 8.39551L11.636 8.89623L11.6378 8.89851L12.2599 8.39551ZM12.5271 8.65957L12.0914 9.33048L12.0914 9.33052L12.5271 8.65957ZM12.5907 8.68874L12.4591 9.47785L12.4791 9.48119L12.4993 9.4835L12.5907 8.68874ZM13.2146 8.49759L12.8904 7.76621L12.8904 7.76621L13.2146 8.49759ZM13.8589 8.19186L13.5086 7.47261L13.5083 7.47278L13.8589 8.19186ZM13.9188 8.16269L14.269 8.88196L14.2727 8.88013L13.9188 8.16269ZM14.8479 7.7252L14.5264 6.99265L14.5204 6.99531L14.8479 7.7252ZM15.6943 9.62884L16.0218 10.3587L16.0227 10.3583L15.6943 9.62884ZM14.8334 10.0346L15.1845 10.7534L15.1878 10.7518L14.8334 10.0346ZM14.7651 10.0679L15.116 10.7868L15.1163 10.7867L14.7651 10.0679ZM14.0568 10.4033L13.7338 9.67144L13.7332 9.67167L14.0568 10.4033ZM12.3396 10.757L12.2431 11.5511L12.2434 11.5512L12.3396 10.757ZM10.6912 9.76738L11.3045 9.25372L10.5335 8.33313L9.98091 9.39925L10.6912 9.76738ZM9.26774 12.5137L8.55747 12.1456L8.3232 12.5976L8.63344 13.0013L9.26774 12.5137ZM11.2365 15.0752L11.8718 14.589L11.8708 14.5877L11.2365 15.0752ZM11.4464 15.6023L12.2421 15.5195L12.2419 15.518L11.4464 15.6023ZM11.8797 19.7669L11.0839 19.8497L11.0854 19.8624L11.8797 19.7669ZM9.80784 19.9825L10.6049 19.9124L10.6035 19.8996L9.80784 19.9825ZM9.40471 16.1111L10.2004 16.0283L10.177 15.8032L10.0391 15.6237L9.40471 16.1111ZM8.20888 14.5549L8.84323 14.0674L8.09166 13.0894L7.50512 14.1745L8.20888 14.5549ZM8.19846 14.5742L7.47961 14.9252L8.16238 16.3233L8.90223 14.9546L8.19846 14.5742ZM8.15471 14.4846L8.87357 14.1335L8.83818 14.061L8.78904 13.9971L8.15471 14.4846ZM5.94534 11.6096L6.57967 11.1221L6.57963 11.1221L5.94534 11.6096ZM5.79846 10.6023L6.54556 10.8884L6.5456 10.8883L5.79846 10.6023ZM11.8854 5.57051C12.7192 5.57051 13.5188 5.23929 14.1084 4.64972L12.977 3.51835C12.6875 3.80786 12.2949 3.97051 11.8854 3.97051V5.57051ZM14.1084 4.64972C14.698 4.06016 15.0292 3.26053 15.0292 2.42676H13.4292C13.4292 2.83619 13.2665 3.22884 12.977 3.51835L14.1084 4.64972ZM15.0292 2.42676C15.0292 1.59298 14.698 0.793358 14.1084 0.203791L12.977 1.33516C13.2665 1.62467 13.4292 2.01733 13.4292 2.42676H15.0292ZM14.1084 0.203791C13.5188 -0.385777 12.7192 -0.716992 11.8854 -0.716992V0.883008C12.2949 0.883008 12.6875 1.04565 12.977 1.33516L14.1084 0.203791ZM11.8854 -0.716992C11.0517 -0.716992 10.252 -0.385777 9.66248 0.203791L10.7938 1.33516C11.0834 1.04565 11.476 0.883008 11.8854 0.883008V-0.716992ZM9.66248 0.203791C9.07291 0.793358 8.74169 1.59298 8.74169 2.42676H10.3417C10.3417 2.01733 10.5043 1.62467 10.7938 1.33516L9.66248 0.203791ZM8.74169 2.42676C8.74169 3.26053 9.07291 4.06016 9.66248 4.64972L10.7938 3.51835C10.5043 3.22884 10.3417 2.83619 10.3417 2.42676H8.74169ZM9.66248 4.64972C10.252 5.23929 11.0517 5.57051 11.8854 5.57051V3.97051C11.476 3.97051 11.0834 3.80786 10.7938 3.51835L9.66248 4.64972ZM6.98411 6.22435C6.22422 6.41325 5.66893 6.70896 5.21155 7.09376L6.24162 8.31808C6.49987 8.10081 6.83104 7.9111 7.37011 7.77709L6.98411 6.22435ZM5.21106 7.09418C4.55422 7.64771 4.06072 8.41578 3.4767 9.43833L4.86606 10.2319C5.45288 9.2044 5.82604 8.6683 6.24212 8.31767L5.21106 7.09418ZM3.47682 9.43812C3.44501 9.49378 3.39239 9.53452 3.33053 9.55138L3.75138 11.095C4.22264 10.9666 4.62355 10.6561 4.86594 10.2321L3.47682 9.43812ZM3.33053 9.55138C3.26868 9.56824 3.20266 9.55985 3.147 9.52803L2.35305 10.9171C2.77713 11.1595 3.28012 11.2235 3.75138 11.095L3.33053 9.55138ZM3.147 9.52803C3.09134 9.49622 3.0506 9.4436 3.03373 9.38175L1.49007 9.80259C1.61855 10.2738 1.92897 10.6748 2.35305 10.9171L3.147 9.52803ZM3.03373 9.38175C3.01687 9.31989 3.02527 9.25387 3.05708 9.19821L1.66797 8.40426C1.42559 8.82834 1.36159 9.33133 1.49007 9.80259L3.03373 9.38175ZM3.05701 9.19834C3.64065 8.17763 4.16965 7.33933 4.89998 6.72484L3.86987 5.50055C2.89916 6.31731 2.25003 7.3863 1.66804 8.40413L3.05701 9.19834ZM4.90045 6.72444C5.63858 6.1024 6.5634 5.72404 7.91245 5.57393L7.73552 3.98375C6.15436 4.15968 4.90626 4.62716 3.86939 5.50095L4.90045 6.72444ZM7.91188 5.574C8.45896 5.51352 8.96968 5.53785 9.41635 5.73707L10.0681 4.27582C9.25121 3.9115 8.41401 3.90874 7.73608 3.98368L7.91188 5.574ZM9.41576 5.73681C9.86938 5.93956 10.2287 6.30938 10.4945 6.88051L11.9451 6.20529C11.5505 5.35768 10.9411 4.66604 10.0687 4.27608L9.41576 5.73681ZM10.4947 6.88076C10.9448 7.84703 11.3084 8.48805 11.636 8.89622L12.8838 7.89479C12.6823 7.64359 12.3844 7.14815 11.945 6.20505L10.4947 6.88076ZM11.6378 8.89851C11.8001 9.09915 11.9495 9.23833 12.0914 9.33048L12.9629 7.98866C12.9851 8.0031 12.9881 8.00834 12.9726 7.99365C12.9575 7.97929 12.9271 7.94823 12.882 7.8925L11.6378 8.89851ZM12.0914 9.33052C12.1458 9.36584 12.2095 9.40122 12.2828 9.42958C12.3206 9.44421 12.3586 9.45607 12.3969 9.46527C12.4337 9.47413 12.4683 9.47938 12.4591 9.47785L12.7222 7.89962C12.7099 7.89758 12.7399 7.90217 12.7706 7.90953C12.8026 7.91723 12.8327 7.92676 12.8604 7.93748C12.9134 7.95802 12.9485 7.97934 12.9628 7.98862L12.0914 9.33052ZM12.4993 9.4835C12.7743 9.51511 13.0937 9.42625 13.5388 9.22897L12.8904 7.76621C12.6998 7.8507 12.5994 7.88163 12.5605 7.89152C12.5192 7.90204 12.5747 7.88164 12.682 7.89397L12.4993 9.4835ZM13.5388 9.22897C13.7428 9.13853 13.9622 9.03152 14.2095 8.91095L13.5083 7.47278C13.2535 7.59699 13.0624 7.68998 12.8904 7.76621L13.5388 9.22897ZM14.2091 8.91111L14.269 8.88195L13.5685 7.44344L13.5086 7.47261L14.2091 8.91111ZM14.2727 8.88013C14.571 8.73297 14.872 8.59126 15.1755 8.45508L14.5204 6.99531C14.1992 7.13946 13.8806 7.28947 13.5648 7.44526L14.2727 8.88013ZM15.1695 8.45772C15.228 8.43203 15.2943 8.43056 15.3539 8.45363L15.9316 6.96155C15.4775 6.78574 14.9722 6.79693 14.5264 6.99268L15.1695 8.45772ZM15.3539 8.45363C15.4135 8.4767 15.4615 8.52243 15.4875 8.58082L16.9495 7.93081C16.7517 7.48586 16.3857 7.13736 15.9316 6.96155L15.3539 8.45363ZM15.4875 8.58082C15.5135 8.63921 15.5152 8.7055 15.4924 8.76519L16.9872 9.33588C17.1609 8.88096 17.1473 8.37577 16.9495 7.93081L15.4875 8.58082ZM15.4924 8.76519C15.4696 8.82489 15.4241 8.87313 15.3659 8.89936L16.0227 10.3583C16.4667 10.1584 16.8135 9.7908 16.9872 9.33588L15.4924 8.76519ZM15.3668 8.89894C15.0683 9.03289 14.7722 9.1724 14.4789 9.31739L15.1878 10.7518C15.4633 10.6156 15.7414 10.4845 16.0218 10.3587L15.3668 8.89894ZM14.4822 9.31576L14.414 9.3491L15.1163 10.7867L15.1845 10.7534L14.4822 9.31576ZM14.4142 9.34896C14.1703 9.46802 13.9434 9.57889 13.7338 9.67144L14.3798 11.1352C14.6233 11.0278 14.8798 10.9022 15.116 10.7868L14.4142 9.34896ZM13.7332 9.67167C13.2811 9.87162 12.8548 10.0135 12.4358 9.96277L12.2434 11.5512C13.1234 11.6577 13.895 11.3496 14.3803 11.135L13.7332 9.67167ZM12.4362 9.96281C12.0218 9.91243 11.6622 9.68079 11.3045 9.25372L10.0779 10.281C10.59 10.8925 11.2866 11.4348 12.2431 11.5511L12.4362 9.96281ZM9.98091 9.39925L8.55747 12.1456L9.978 12.8819L11.4014 10.1355L9.98091 9.39925ZM8.63344 13.0013L10.6022 15.5627L11.8708 14.5877L9.90203 12.0262L8.63344 13.0013ZM10.6012 15.5614C10.6286 15.5972 10.6459 15.6403 10.6508 15.6866L12.2419 15.518C12.2062 15.1809 12.0787 14.8594 11.8718 14.589L10.6012 15.5614ZM10.6507 15.6851L11.084 19.8497L12.6754 19.6841L12.2421 15.5195L10.6507 15.6851ZM11.0854 19.8624C11.0893 19.8943 11.0867 19.9265 11.078 19.9574L12.617 20.3949C12.6838 20.1599 12.7032 19.9139 12.674 19.6713L11.0854 19.8624ZM11.078 19.9574C11.0692 19.9882 11.0544 20.017 11.0344 20.0421L12.2848 21.0402C12.4373 20.8493 12.5502 20.6299 12.617 20.3949L11.078 19.9574ZM11.0344 20.0421C11.0144 20.0671 10.9896 20.0879 10.9615 20.1033L11.7291 21.5072C11.9435 21.3899 12.1324 21.2312 12.2848 21.0402L11.0344 20.0421ZM10.9615 20.1033C10.9333 20.1187 10.9024 20.1283 10.8705 20.1317L11.0361 21.7231C11.2792 21.6978 11.5147 21.6244 11.7291 21.5072L10.9615 20.1033ZM10.8705 20.1317C10.8386 20.135 10.8064 20.1319 10.7757 20.1227L10.3136 21.6545C10.5475 21.725 10.7931 21.7484 11.0361 21.7231L10.8705 20.1317ZM10.7757 20.1227C10.745 20.1134 10.7165 20.0981 10.6917 20.0777L9.67361 21.312C9.8621 21.4675 10.0796 21.5839 10.3136 21.6545L10.7757 20.1227ZM10.6917 20.0777C10.667 20.0573 10.6466 20.0322 10.6316 20.0038L9.21568 20.7489C9.32946 20.9651 9.48513 21.1565 9.67361 21.312L10.6917 20.0777ZM10.6316 20.0038C10.6167 19.9755 10.6076 19.9444 10.6048 19.9125L9.01091 20.0525C9.0323 20.2959 9.10191 20.5326 9.21568 20.7489L10.6316 20.0038ZM10.6035 19.8996L10.2004 16.0283L8.60902 16.194L9.01214 20.0653L10.6035 19.8996ZM10.0391 15.6237L8.84323 14.0674L7.57453 15.0423L8.77036 16.5986L10.0391 15.6237ZM7.50512 14.1745L7.4947 14.1937L8.90223 14.9546L8.91264 14.9353L7.50512 14.1745ZM8.91732 14.2231L8.87357 14.1335L7.43586 14.8356L7.47961 14.9252L8.91732 14.2231ZM8.78904 13.9971L6.57967 11.1221L5.31101 12.097L7.52038 14.972L8.78904 13.9971ZM6.57963 11.1221C6.55444 11.0893 6.53807 11.0506 6.53211 11.0097L4.94885 11.2405C4.99431 11.5523 5.11902 11.8472 5.31104 12.0971L6.57963 11.1221ZM6.53211 11.0097C6.52614 10.9687 6.53077 10.927 6.54556 10.8884L5.05137 10.3162C4.93868 10.6105 4.90339 10.9287 4.94885 11.2405L6.53211 11.0097ZM6.5456 10.8883L7.92424 7.28671L6.42998 6.71472L5.05133 10.3163L6.5456 10.8883Z" fill="#FF8A5B" mask="url(#path-1-inside-1_1077_3259)"/>
<path d="M4.80175 15.5687L5.10302 15.5926L5.20831 15.3093L5.72318 13.9242L6.64591 15.1251L6.13715 16.4944C6.08846 16.6253 5.99843 16.7366 5.88072 16.8117C5.76301 16.8867 5.62405 16.9213 5.4849 16.9102L5.48482 16.9102L1.67857 16.6082L1.67857 16.6081L1.67353 16.6078C1.58876 16.6021 1.50594 16.5797 1.4299 16.5418C1.35386 16.5039 1.28611 16.4512 1.23058 16.3869C1.17505 16.3226 1.13284 16.2479 1.1064 16.1672C1.07997 16.0864 1.06984 16.0012 1.07659 15.9165C1.08335 15.8318 1.10686 15.7493 1.14576 15.6738C1.18466 15.5982 1.23817 15.5312 1.3032 15.4765C1.36822 15.4218 1.44346 15.3806 1.52455 15.3552C1.60564 15.3298 1.69096 15.3208 1.77556 15.3286L1.77556 15.3287L1.78092 15.3291L4.80175 15.5687Z" stroke="#FF8A5B" stroke-width="0.8"/>
</svg>