<svg width="31" height="40" viewBox="0 0 31 40" fill="none" xmlns="http://www.w3.org/2000/svg">
<path d="M0.916504 39.9195V35.7528H11.3332V31.5862C8.45123 31.5862 5.99463 30.5706 3.96338 28.5393C1.93213 26.5081 0.916504 24.0515 0.916504 21.1695C0.916504 19.0515 1.4981 17.1244 2.6613 15.3883C3.82449 13.6522 5.39567 12.3848 7.37484 11.5862C7.65262 10.4056 8.26893 9.45076 9.22379 8.7216C10.1787 7.99243 11.2637 7.62785 12.479 7.62785L11.3332 4.39868L13.3123 3.66951L12.5832 1.79451L16.5415 0.336182L17.1665 2.31535L19.1457 1.58618L24.8748 17.2112L22.8957 17.9403L23.6248 19.9195L19.6665 21.3778L19.0415 19.3987L17.0623 20.1278L15.8123 16.6903C15.2915 17.1765 14.6925 17.541 14.0155 17.7841C13.3384 18.0272 12.6526 18.114 11.9582 18.0445C11.1943 17.9751 10.4825 17.7407 9.82275 17.3414C9.16303 16.9421 8.59011 16.4473 8.104 15.857C7.1665 16.4126 6.42866 17.1591 5.89046 18.0966C5.35227 19.0341 5.08317 20.0584 5.08317 21.1695C5.08317 22.9056 5.69081 24.3813 6.90609 25.5966C8.12136 26.8119 9.59706 27.4195 11.3332 27.4195H27.9998V31.5862H17.5832V35.7528H30.0832V39.9195H0.916504ZM18.9373 16.0653L20.8123 15.3362L17.2707 5.54451L15.2915 6.27368L18.9373 16.0653ZM12.3748 14.9195C12.9651 14.9195 13.4599 14.7199 13.8592 14.3206C14.2585 13.9213 14.4582 13.4265 14.4582 12.8362C14.4582 12.2459 14.2585 11.7511 13.8592 11.3518C13.4599 10.9525 12.9651 10.7528 12.3748 10.7528C11.7846 10.7528 11.2898 10.9525 10.8905 11.3518C10.4912 11.7511 10.2915 12.2459 10.2915 12.8362C10.2915 13.4265 10.4912 13.9213 10.8905 14.3206C11.2898 14.7199 11.7846 14.9195 12.3748 14.9195Z" fill="#25CED1"/>
</svg>