<svg width="51" height="50" viewBox="0 0 51 50" fill="none" xmlns="http://www.w3.org/2000/svg">
<mask id="mask0_848_8178" style="mask-type:alpha" maskUnits="userSpaceOnUse" x="0" y="0" width="51" height="50">
<rect x="0.5" width="50" height="50" fill="#D9D9D9"/>
</mask>
<g mask="url(#mask0_848_8178)">
<path d="M10.9165 43.75V39.5833H21.3332V35.4167C18.4512 35.4167 15.9946 34.401 13.9634 32.3698C11.9321 30.3385 10.9165 27.8819 10.9165 25C10.9165 22.8819 11.4981 20.9549 12.6613 19.2187C13.8245 17.4826 15.3957 16.2153 17.3748 15.4167C17.6526 14.2361 18.2689 13.2812 19.2238 12.5521C20.1787 11.8229 21.2637 11.4583 22.479 11.4583L21.3332 8.22916L23.3123 7.5L22.5832 5.625L26.5415 4.16666L27.1665 6.14583L29.1457 5.41666L34.8748 21.0417L32.8957 21.7708L33.6248 23.75L29.6665 25.2083L29.0415 23.2292L27.0623 23.9583L25.8123 20.5208C25.2915 21.0069 24.6925 21.3715 24.0155 21.6146C23.3384 21.8576 22.6526 21.9444 21.9582 21.875C21.1943 21.8056 20.4825 21.5712 19.8228 21.1719C19.163 20.7726 18.5901 20.2778 18.104 19.6875C17.1665 20.2431 16.4287 20.9896 15.8905 21.9271C15.3523 22.8646 15.0832 23.8889 15.0832 25C15.0832 26.7361 15.6908 28.2118 16.9061 29.4271C18.1214 30.6424 19.5971 31.25 21.3332 31.25H37.9998V35.4167H27.5832V39.5833H40.0832V43.75H10.9165ZM28.9373 19.8958L30.8123 19.1667L27.2707 9.375L25.2915 10.1042L28.9373 19.8958ZM22.3748 18.75C22.9651 18.75 23.4599 18.5503 23.8592 18.151C24.2585 17.7517 24.4582 17.2569 24.4582 16.6667C24.4582 16.0764 24.2585 15.5816 23.8592 15.1823C23.4599 14.783 22.9651 14.5833 22.3748 14.5833C21.7846 14.5833 21.2898 14.783 20.8905 15.1823C20.4912 15.5816 20.2915 16.0764 20.2915 16.6667C20.2915 17.2569 20.4912 17.7517 20.8905 18.151C21.2898 18.5503 21.7846 18.75 22.3748 18.75Z" fill="#25CED1"/>
</g>
</svg>