<svg width="25" height="25" viewBox="0 0 25 25" fill="none" xmlns="http://www.w3.org/2000/svg">
<path d="M7.81254 5.20866V5.20866C6.3743 5.20866 5.20837 6.37458 5.20837 7.81282V12.5003C5.20837 15.3768 7.54022 17.7087 10.4167 17.7087V17.7087M7.81254 5.20866C7.81254 5.78396 8.27891 6.25033 8.85421 6.25033C9.4295 6.25033 9.89587 5.78396 9.89587 5.20866C9.89587 4.63336 9.4295 4.16699 8.85421 4.16699C8.27891 4.16699 7.81254 4.63336 7.81254 5.20866ZM13.5417 5.20866C13.5417 5.78396 13.0753 6.25033 12.5 6.25033C11.9247 6.25033 11.4584 5.78396 11.4584 5.20866C11.4584 4.63336 11.9247 4.16699 12.5 4.16699C13.0753 4.16699 13.5417 4.63336 13.5417 5.20866ZM13.5417 5.20866V5.20866C14.6923 5.20866 15.625 6.1414 15.625 7.29199V12.5003C15.625 15.3768 13.2932 17.7087 10.4167 17.7087V17.7087M10.4167 17.7087C10.4167 22.917 19.2709 23.4378 19.2709 17.7087V13.542" stroke="#8163B0" stroke-width="1.5"/>
<path d="M20.8334 11.9795C20.8334 12.8424 20.1338 13.542 19.2709 13.542C18.4079 13.542 17.7084 12.8424 17.7084 11.9795C17.7084 11.1165 18.4079 10.417 19.2709 10.417C20.1338 10.417 20.8334 11.1165 20.8334 11.9795Z" stroke="#8163B0" stroke-width="1.5"/>
<path d="M19.2709 11.9688H19.2809V11.9788H19.2709V11.9688Z" stroke="#ECE8F3" stroke-width="1.5" stroke-linejoin="round"/>
</svg>