<svg width="25" height="25" viewBox="0 0 25 25" fill="none" xmlns="http://www.w3.org/2000/svg">
<path d="M7.81266 5.20866V5.20866C6.37442 5.20866 5.2085 6.37458 5.2085 7.81282V12.5003C5.2085 15.3768 7.54035 17.7087 10.4168 17.7087V17.7087M7.81266 5.20866C7.81266 5.78396 8.27903 6.25033 8.85433 6.25033C9.42963 6.25033 9.896 5.78396 9.896 5.20866C9.896 4.63336 9.42963 4.16699 8.85433 4.16699C8.27903 4.16699 7.81266 4.63336 7.81266 5.20866ZM13.5418 5.20866C13.5418 5.78396 13.0755 6.25033 12.5002 6.25033C11.9249 6.25033 11.4585 5.78396 11.4585 5.20866C11.4585 4.63336 11.9249 4.16699 12.5002 4.16699C13.0755 4.16699 13.5418 4.63336 13.5418 5.20866ZM13.5418 5.20866V5.20866C14.6924 5.20866 15.6252 6.1414 15.6252 7.29199V12.5003C15.6252 15.3768 13.2933 17.7087 10.4168 17.7087V17.7087M10.4168 17.7087C10.4168 22.917 19.271 23.4378 19.271 17.7087V13.542" stroke="#0087D0" stroke-width="1.5"/>
<path d="M20.8335 11.9795C20.8335 12.8424 20.1339 13.542 19.271 13.542C18.4081 13.542 17.7085 12.8424 17.7085 11.9795C17.7085 11.1165 18.4081 10.417 19.271 10.417C20.1339 10.417 20.8335 11.1165 20.8335 11.9795Z" stroke="#0087D0" stroke-width="1.5"/>
<path d="M19.2708 11.9688H19.2808V11.9788H19.2708V11.9688Z" stroke="#0087D0" stroke-width="1.5" stroke-linejoin="round"/>
</svg>