<svg width="25" height="26" viewBox="0 0 25 26" fill="none" xmlns="http://www.w3.org/2000/svg">
<path d="M6.75684 9.87467V8.70801C6.75684 7.29379 6.75684 6.58669 7.19618 6.14735C7.63552 5.70801 8.34262 5.70801 9.75684 5.70801H15.2433C16.6575 5.70801 17.3646 5.70801 17.804 6.14735C18.2433 6.58669 18.2433 7.29379 18.2433 8.70801V9.87467M6.75684 9.87467H18.2433M6.75684 9.87467V19.2497M18.2433 9.87467V19.2497M6.75684 19.2497V19.2497C6.75684 20.4041 6.75684 20.9813 7.05771 21.3817C7.14252 21.4945 7.24282 21.5949 7.35567 21.6797C7.75602 21.9805 8.33325 21.9805 9.48769 21.9805H15.5125C16.6669 21.9805 17.2441 21.9805 17.6445 21.6797C17.7573 21.5949 17.8576 21.4945 17.9424 21.3817C18.2433 20.9813 18.2433 20.4041 18.2433 19.2497V19.2497M6.75684 19.2497H18.2433" stroke="#03A8AB"/>
<path d="M8.67114 4.99036C8.67114 4.78748 8.67114 4.68604 8.70015 4.60464C8.75055 4.46318 8.86186 4.35187 9.00332 4.30146C9.08473 4.27246 9.18617 4.27246 9.38905 4.27246H15.6109C15.8138 4.27246 15.9152 4.27246 15.9966 4.30146C16.1381 4.35187 16.2494 4.46318 16.2998 4.60464C16.3288 4.68604 16.3288 4.78748 16.3288 4.99036V4.99036C16.3288 5.19325 16.3288 5.29469 16.2998 5.37609C16.2494 5.51755 16.1381 5.62886 15.9966 5.67926C15.9152 5.70827 15.8138 5.70827 15.6109 5.70827H9.38905C9.18617 5.70827 9.08473 5.70827 9.00332 5.67926C8.86186 5.62886 8.75055 5.51755 8.70015 5.37609C8.67114 5.29469 8.67114 5.19325 8.67114 4.99036V4.99036Z" stroke="#03A8AB"/>
<path d="M11.5732 12.3599C11.5236 12.4795 11.5236 12.6312 11.5236 12.9346V13.5544C11.5236 13.5691 11.5236 13.5765 11.519 13.581C11.5144 13.5856 11.5071 13.5856 11.4924 13.5856H10.8726C10.5692 13.5856 10.4175 13.5856 10.2979 13.6352C10.1384 13.7012 10.0116 13.828 9.94555 13.9875C9.896 14.1072 9.896 14.2588 9.896 14.5622C9.896 14.8655 9.896 15.0172 9.94555 15.1368C10.0116 15.2964 10.1384 15.4231 10.2979 15.4892C10.4175 15.5387 10.5692 15.5387 10.8726 15.5387H11.4924C11.5071 15.5387 11.5144 15.5387 11.519 15.5433C11.5236 15.5479 11.5236 15.5553 11.5236 15.57V16.1898C11.5236 16.4931 11.5236 16.6448 11.5732 16.7644C11.6392 16.924 11.766 17.0507 11.9255 17.1168C12.0451 17.1663 12.1968 17.1663 12.5002 17.1663C12.8035 17.1663 12.9552 17.1663 13.0748 17.1168C13.2344 17.0507 13.3611 16.924 13.4272 16.7644C13.4767 16.6448 13.4767 16.4931 13.4767 16.1898V15.57C13.4767 15.5553 13.4767 15.5479 13.4813 15.5433C13.4859 15.5387 13.4932 15.5387 13.508 15.5387H14.1278C14.4311 15.5387 14.5828 15.5387 14.7024 15.4892C14.862 15.4231 14.9887 15.2964 15.0548 15.1368C15.1043 15.0172 15.1043 14.8655 15.1043 14.5622C15.1043 14.2588 15.1043 14.1072 15.0548 13.9875C14.9887 13.828 14.862 13.7012 14.7024 13.6352C14.5828 13.5856 14.4311 13.5856 14.1278 13.5856H13.508C13.4932 13.5856 13.4859 13.5856 13.4813 13.581C13.4767 13.5765 13.4767 13.5691 13.4767 13.5544V12.9346C13.4767 12.6312 13.4767 12.4795 13.4272 12.3599C13.3611 12.2004 13.2344 12.0736 13.0748 12.0076C12.9552 11.958 12.8035 11.958 12.5002 11.958C12.1968 11.958 12.0451 11.958 11.9255 12.0076C11.766 12.0736 11.6392 12.2004 11.5732 12.3599Z" stroke="#03A8AB"/>
</svg>