<svg viewBox="0 0 37 45" fill="none" xmlns="http://www.w3.org/2000/svg">
<path d="M35.1178 15.0864C34.921 15.2096 30.2362 17.8096 30.2362 23.5744C30.457 30.1488 36.1482 32.4544 36.2458 32.4544C36.1482 32.5776 35.3866 35.5952 33.1306 38.7584C31.3402 41.4832 29.353 44.2304 26.3354 44.2304C23.465 44.2304 22.4346 42.4144 19.1226 42.4144C15.5658 42.4144 14.5594 44.2304 11.8362 44.2304C8.81859 44.2304 6.68419 41.336 4.79619 38.6368C2.34339 35.104 0.258592 29.56 0.184992 24.2368C0.135392 21.416 0.676192 18.6432 2.04899 16.288C3.98659 13 7.44579 10.768 11.2234 10.6944C14.1178 10.5968 16.6938 12.6816 18.4602 12.6816C20.153 12.6816 23.3178 10.6944 26.8986 10.6944C28.4442 10.696 32.5658 11.1616 35.1178 15.0864ZM18.2154 10.1312C17.7002 7.5552 19.1226 4.9792 20.4474 3.336C22.1402 1.3488 24.8138 0 27.1194 0C27.2666 2.576 26.3338 5.1024 24.6666 6.9424C23.1706 8.9296 20.5946 10.4256 18.2154 10.1312Z" fill="#1A1A1A"/>
</svg>
