<svg width="50" height="50" viewBox="0 0 50 50" fill="none" xmlns="http://www.w3.org/2000/svg">
<mask id="mask0_78_3239" style="mask-type:alpha" maskUnits="userSpaceOnUse" x="0" y="0" width="50" height="50">
<rect width="50" height="50" fill="#D9D9D9"/>
</mask>
<g mask="url(#mask0_78_3239)">
<path d="M10.4167 16.6667H39.5833V12.5H10.4167V16.6667ZM10.4167 45.8334C9.27083 45.8334 8.28993 45.4254 7.47396 44.6094C6.65799 43.7934 6.25 42.8125 6.25 41.6667V12.5C6.25 11.3542 6.65799 10.3733 7.47396 9.55731C8.28993 8.74134 9.27083 8.33335 10.4167 8.33335H12.5V4.16669H16.6667V8.33335H33.3333V4.16669H37.5V8.33335H39.5833C40.7292 8.33335 41.7101 8.74134 42.526 9.55731C43.342 10.3733 43.75 11.3542 43.75 12.5V24.3229C43.0903 24.0104 42.4132 23.75 41.7188 23.5417C41.0243 23.3334 40.3125 23.1771 39.5833 23.0729V20.8334H10.4167V41.6667H23.5417C23.7847 42.4306 24.0712 43.1597 24.401 43.8542C24.7309 44.5486 25.1215 45.2084 25.5729 45.8334H10.4167ZM37.5 47.9167C34.6181 47.9167 32.1615 46.9011 30.1302 44.8698C28.099 42.8386 27.0833 40.382 27.0833 37.5C27.0833 34.6181 28.099 32.1615 30.1302 30.1302C32.1615 28.099 34.6181 27.0834 37.5 27.0834C40.3819 27.0834 42.8385 28.099 44.8698 30.1302C46.901 32.1615 47.9167 34.6181 47.9167 37.5C47.9167 40.382 46.901 42.8386 44.8698 44.8698C42.8385 46.9011 40.3819 47.9167 37.5 47.9167ZM40.9896 42.4479L42.4479 40.9896L38.5417 37.0834V31.25H36.4583V37.9167L40.9896 42.4479Z" fill="#1E999B"/>
</g>
</svg>
