<svg width="50" height="50" viewBox="0 0 50 50" fill="none" xmlns="http://www.w3.org/2000/svg">
<mask id="mask0_78_3249" style="mask-type:alpha" maskUnits="userSpaceOnUse" x="0" y="0" width="50" height="50">
<rect width="50" height="50" fill="#D9D9D9"/>
</mask>
<g mask="url(#mask0_78_3249)">
<path d="M25.7292 34.375C24.3403 35.7639 22.6562 36.4583 20.6771 36.4583C18.6979 36.4583 17.0139 35.7639 15.625 34.375C14.2361 32.9861 13.5417 31.3107 13.5417 29.3489C13.5417 27.3871 14.2361 25.7118 15.625 24.3229L24.2708 15.625C25.6597 14.2361 27.3437 13.5416 29.3229 13.5416C31.3021 13.5416 32.9861 14.2361 34.375 15.625C35.7639 17.0139 36.4583 18.6892 36.4583 20.651C36.4583 22.6128 35.7639 24.2882 34.375 25.6771L25.7292 34.375ZM18.5417 31.4062C19.3403 32.2048 20.1649 32.4913 21.0156 32.2656C21.8663 32.0399 22.4479 31.7708 22.7604 31.4583L25.625 28.5416L21.4583 24.375L18.5417 27.2396C17.9514 27.8298 17.6562 28.5243 17.6562 29.3229C17.6562 30.1215 17.9514 30.816 18.5417 31.4062ZM31.4583 18.5937C30.6597 17.7951 29.8351 17.5087 28.9844 17.7344C28.1337 17.9601 27.5521 18.2291 27.2396 18.5416L24.375 21.4583L28.5417 25.625L31.4583 22.7604C32.0486 22.1701 32.3438 21.4757 32.3438 20.6771C32.3438 19.8785 32.0486 19.184 31.4583 18.5937ZM10.4167 43.75C9.27083 43.75 8.28993 43.342 7.47396 42.526C6.65799 41.7101 6.25 40.7291 6.25 39.5833V10.4166C6.25 9.27081 6.65799 8.28991 7.47396 7.47394C8.28993 6.65797 9.27083 6.24998 10.4167 6.24998H19.1667C19.6181 4.99998 20.3733 3.99304 21.4323 3.22915C22.4913 2.46526 23.6806 2.08331 25 2.08331C26.3194 2.08331 27.5087 2.46526 28.5677 3.22915C29.6267 3.99304 30.3819 4.99998 30.8333 6.24998H39.5833C40.7292 6.24998 41.7101 6.65797 42.526 7.47394C43.342 8.28991 43.75 9.27081 43.75 10.4166V39.5833C43.75 40.7291 43.342 41.7101 42.526 42.526C41.7101 43.342 40.7292 43.75 39.5833 43.75H10.4167ZM10.4167 39.5833H39.5833V10.4166H10.4167V39.5833ZM25 8.85415C25.4514 8.85415 25.8247 8.70658 26.1198 8.41144C26.4149 8.1163 26.5625 7.74304 26.5625 7.29165C26.5625 6.84026 26.4149 6.46699 26.1198 6.17185C25.8247 5.87672 25.4514 5.72915 25 5.72915C24.5486 5.72915 24.1753 5.87672 23.8802 6.17185C23.5851 6.46699 23.4375 6.84026 23.4375 7.29165C23.4375 7.74304 23.5851 8.1163 23.8802 8.41144C24.1753 8.70658 24.5486 8.85415 25 8.85415Z" fill="#1E999B"/>
</g>
</svg>
